<svg xmlns="http://www.w3.org/2000/svg" xmlns:xlink="http://www.w3.org/1999/xlink" viewBox="-13241 1107 40 40">
  <g id="Group_872" data-name="Group 872" transform="translate(-8465 -1679)">
    <circle id="Ellipse_27" data-name="Ellipse 27" class="cls-3" cx="20" cy="20" r="20" transform="translate(-4776 2786)"/>
    <g id="Mask_Group_29" data-name="Mask Group 29" class="cls-4" transform="translate(-4763.934 2794.787)">
      <g id="Mask_Group_28" data-name="Mask Group 28" class="cls-5" transform="translate(-7.359)">
        <g id="cardmarket-logo-cropped_20.03.13" data-name="cardmarket-logo-cropped 20.03.13" transform="translate(0 0.677)">
          <path id="Path_105" data-name="Path 105" class="cls-2" d="M31.3-63.819c-.346.346-.181.8.6,1.58l.8.8-2.83,2.83c-2.589,2.6-2.815,2.86-2.815,3.356,0,.647-.06.572,2.212,2.739,1.565,1.52,1.9,1.761,2.318,1.761.436,0,.8-.316,3.326-2.815l2.815-2.815.828.783c.873.828,1.129.918,1.505.542.211-.2.241-.8.241-4.259,0-3.838-.015-4.034-.3-4.35C39.7-64,39.613-64,35.594-64,32.6-64,31.44-63.955,31.3-63.819Z" transform="translate(-17.879 64)"/>
          <path id="Path_106" data-name="Path 106" class="cls-2" d="M12.234-61.182c-1.069.256-1.189.361-1.159.993.015.361,2.032,10.325,2.634,12.989.045.166.075-2.965.09-6.969l.015-7.255-.331.015A7.992,7.992,0,0,0,12.234-61.182Z" transform="translate(-7.492 62.326)"/>
          <path id="Path_107" data-name="Path 107" class="cls-2" d="M2.289-52.1c-1.37.512-1.43.557-1.43,1.069,0,.331,2.092,6.382,3.386,9.783.105.286.632,1.731,1.144,3.191.918,2.6.963,2.679,1.37,2.679.226,0,.421-.075.421-.166,0-.166-1.716-8.037-2.182-9.994-.12-.5-.5-2.2-.843-3.763-.346-1.58-.662-2.935-.722-3.025C3.373-52.427,3.011-52.367,2.289-52.1Z" transform="translate(-0.859 56.445)"/>
          <path id="Path_108" data-name="Path 108" class="cls-2" d="M23.526-32.4c-.331.226-.331.241-.331,4.741,0,4.3.015,4.515.3,4.8s.5.3,4.756.3a36.283,36.283,0,0,0,4.741-.151.648.648,0,0,0,.286-.632c0-.376-.151-.632-.753-1.189a3.6,3.6,0,0,1-.753-.873c0-.09,1.309-1.49,2.9-3.116,1.58-1.625,2.95-3.055,3.025-3.176a.688.688,0,0,0-.045-.587c-.346-.768-.692-.512-4.2,3-3.687,3.7-3.748,3.808-2.965,4.741a2.45,2.45,0,0,1,.376.542,29.106,29.106,0,0,1-3.161.09H24.549v-3.161c0-3.657-.075-3.537,1.385-1.972a4.331,4.331,0,0,0,1.023.918.749.749,0,0,0,.753-.722c0-.331-.346-.768-1.7-2.107a12.11,12.11,0,0,0-1.927-1.686A1.219,1.219,0,0,0,23.526-32.4Z" transform="translate(-15.368 43.631)"/>
        </g>
      </g>
    </g>
  </g>
</svg>
