<svg xmlns="http://www.w3.org/2000/svg" xmlns:xlink="http://www.w3.org/1999/xlink" viewBox="-13481 1107 40 40">
  <defs>
    <clipPath id="clip-path">
      <rect id="_version_:_1.5.0_viewSource_:_x_:_0.09999_y_:_26.30837_width_:_75.34888_height_:_70.98083_resources_:_clipPaths_:_" data-name="{
	&quot;version&quot;: &quot;1.5.0&quot;,
	&quot;viewSource&quot;: {
		&quot;x&quot;: 0.09999,
		&quot;y&quot;: 26.30837,
		&quot;width&quot;: 75.34888,
		&quot;height&quot;: 70.98083
	},
	&quot;resources&quot;: {
		&quot;clipPaths&quot;: " class="cls-1" width="18.03" height="18.03" transform="translate(0)"/>
    </clipPath>
  </defs>
  <g id="Group_871" data-name="Group 871" transform="translate(-8422 -1643)">
    <circle id="Ellipse_26" data-name="Ellipse 26" class="cls-2" cx="20" cy="20" r="20" transform="translate(-5059 2750)"/>
    <g id="Mask_Group_27" data-name="Mask Group 27" class="cls-3" transform="translate(-5048.282 2760.719)">
      <path id="EBay_logo" class="cls-1" d="M9.48,53.77C4.421,53.77.2,55.916.2,62.393c0,5.131,2.835,8.362,9.407,8.362,7.735,0,8.231-5.1,8.231-5.1H14.094S13.29,68.4,9.382,68.4A5.131,5.131,0,0,1,3.91,63.239H18.234V61.347c0-2.982-1.893-7.578-8.754-7.578ZM9.35,56.187c3.03,0,5.1,1.856,5.1,4.638H3.993C3.993,57.871,6.689,56.187,9.35,56.187Z" transform="translate(-0.204 -53.247)"/>
    </g>
  </g>
</svg>
