<svg xmlns="http://www.w3.org/2000/svg" xmlns:xlink="http://www.w3.org/1999/xlink" viewBox="-13161 1107 40 40">
  <defs>
    <style>
      .cls-1, .cls-2 {
        fill: #fff;
      }

      .cls-1 {
        stroke: #95989a;
      }

      .cls-3 {
        fill: #aaa;
      }

      .cls-4 {
        clip-path: url(#clip-path);
      }

      .cls-5 {
        clip-path: url(#clip-path-2);
      }
    </style>
    <clipPath id="clip-path">
      <rect id="Rectangle_855" data-name="Rectangle 855" class="cls-1" width="22.4" height="26.667"/>
    </clipPath>
    <clipPath id="clip-path-2">
      <rect id="_version_:_1.5.0_viewSource_:_x_:_0_y_:_0_width_:_154_height_:_154_resources_:_clipPaths_:_filters_:_" data-name="{
	&quot;version&quot;: &quot;1.5.0&quot;,
	&quot;viewSource&quot;: {
		&quot;x&quot;: 0,
		&quot;y&quot;: 0,
		&quot;width&quot;: 154,
		&quot;height&quot;: 154
	},
	&quot;resources&quot;: {
		&quot;clipPaths&quot;: {},
		&quot;filters&quot;: {},
		" class="cls-2" width="26.667" height="26.667"/>
    </clipPath>
  </defs>
  <g id="Group_875" data-name="Group 875" transform="translate(-14055 731)">
    <circle id="Ellipse_21" data-name="Ellipse 21" class="cls-3" cx="20" cy="20" r="20" transform="translate(894 376)"/>
    <g id="Mask_Group_25" data-name="Mask Group 25" class="cls-4" transform="translate(901.467 381.333)">
      <g id="Group_723" data-name="Group 723" transform="translate(-4.267)">
        <rect id="Rectangle_853" data-name="Rectangle 853" class="cls-2" width="21.333" height="24.533" transform="translate(3.733 1.6)"/>
        <g id="Group_716" data-name="Group 716">
          <g id="Mask_Group_24" data-name="Mask Group 24" class="cls-5">
            <g id="facebook-logo-gray">
              <path id="Path_103" data-name="Path 103" class="cls-3" d="M0-140.667v13.333H14.2v-10.39H10.563v-4.156H14.2v-2.3c0-2.234.017-2.355.519-3.359.987-1.974,2.407-2.649,5.506-2.649a11.705,11.705,0,0,1,2.251.139c.156.1.208.623.173,1.957l-.052,1.8-1.472.052a13.973,13.973,0,0,0-1.836.121c-.623.139-.935,1.091-.935,2.753v1.489h3.983v.641a18.665,18.665,0,0,1-.208,2.078l-.208,1.437H18.355v10.39h8.312V-154H0Z" transform="translate(0 154)"/>
            </g>
          </g>
        </g>
      </g>
    </g>
  </g>
</svg>
