<svg xmlns="http://www.w3.org/2000/svg" viewBox="-1652 4766 61.665 69.468">
  <defs>
    <style>
      .cls-1 {
        fill: #868686;
      }
    </style>
  </defs>
  <path id="Path_70" data-name="Path 70" class="cls-1" d="M60.911.4C59.675-.909,55.844.98,50.194,3.187s-11.617,7.08-11.617,7.08a26.249,26.249,0,0,0-6.956-1.042,35.29,35.29,0,0,0-6.815.706,32.892,32.892,0,0,1-4.078-2.6C18.52,5.729,8.563,1.7,5.261,1.386,1.942,1.068,2.136,2.622,2.013,3.328s.777,2.154,4.414,5.72a120.509,120.509,0,0,0,11.035,8.828s-.265.706-.653,2.207-.583,2.154-.583,2.154S1.889,9.613,1.818,9.878,0,28.858,0,28.858l13.241,6.109L8.686,39.045l6.833,3.831-2.79,2.984,1.942,1.748s-1.554,6.162-1.042,10.787a8.589,8.589,0,0,0,3.637,6.427,4.369,4.369,0,0,1-.847,1.112c-.653.653-1.748,2.083-1.165,3.054s5,.071,6.109,0a23.6,23.6,0,0,0,4.414-1.43c.512-.194.6-.918.6-.918s3.761-.653,5.438-.847a25.494,25.494,0,0,1,5.191.441,2.34,2.34,0,0,0,0,1.236c.194.583.847.512,1.748.441a40.637,40.637,0,0,1,4.679.653,31.43,31.43,0,0,0,6.621-.441c.706-.318.777-1.306.071-2.86s-3.054-1.624-3.054-1.624a15.378,15.378,0,0,0,2.79-3.761c.971-2.013.441-5.067,0-8.563a115.707,115.707,0,0,0-2.525-11.688c-.512-1.889-.971-5.138-.971-5.138a7.409,7.409,0,0,1,.583-1.5A16.956,16.956,0,0,0,48.3,28.045a28.3,28.3,0,0,0-.583-5.385c-.583-2.6-1.43-5.455-1.43-5.455a25.219,25.219,0,0,0,3.5-2.33A107.622,107.622,0,0,0,59.339,6.1C62.023,3.522,62.146,1.7,60.911.4ZM40.5,17.841c1.112-.653,2.719.018,3.566,1.483.865,1.465.653,3.2-.459,3.849s-2.719-.018-3.566-1.483C39.177,20.206,39.389,18.494,40.5,17.841Zm-7.274,4.484c.971,0,1.5.247,1.66.494.141.247-.83,1.607-1.5,1.536s-1.907-1.006-1.907-1.536C31.479,22.36,32.256,22.325,33.227,22.325ZM21.275,19.306c.936-1.377,2.578-1.907,3.672-1.165s1.218,2.454.282,3.849c-.936,1.377-2.578,1.907-3.672,1.165S20.339,20.7,21.275,19.306ZM16.3,29.44c0-1.977,1.024-3.566,2.313-3.566s2.313,1.589,2.313,3.566-1.024,3.566-2.313,3.566S16.3,31.4,16.3,29.44Zm11.864,19.4-1.077.23-.177,1.306-.847.177-.371.671-7.945-5.4,7.7,4.59,1.095-.494.159-1.43.83-.177-.141-1.306,1.289-.812-5.049-7.009,5.844,7.256-1.43,1.042Zm1.13-21.5a2.184,2.184,0,0,1-1.854-1.412,2.037,2.037,0,0,0,1.607.671,20.773,20.773,0,0,0,3.407-1.218,2.509,2.509,0,0,1,1.748.194c.83.459,1.854,1.148,2.737,1.024a7.608,7.608,0,0,0,2.154-.883,2.194,2.194,0,0,1-2.119,1.607c-1.624-.088-2.913-1.218-3.8-1.2C32.291,26.174,30.014,27.463,29.29,27.339ZM46.627,44.377l-6.621,6.956-.494-.583h-.865l-.459-1.236H37.076l-.124-1.359-1.624-.706,4.167-8.316-3.46,7.927,1.43.512.124,1.306h.847l.441,1.359,1.165.265Zm.989-15.7c0,2.1-1.042,3.8-2.33,3.8s-2.33-1.695-2.33-3.8,1.042-3.8,2.33-3.8C46.557,24.885,47.616,26.58,47.616,28.681Z" transform="translate(-1652 4766.032)"/>
</svg>
