<?xml version="1.0" encoding="UTF-8" standalone="no"?>
<svg
   xmlns:dc="http://purl.org/dc/elements/1.1/"
   xmlns:cc="http://creativecommons.org/ns#"
   xmlns:rdf="http://www.w3.org/1999/02/22-rdf-syntax-ns#"
   xmlns:svg="http://www.w3.org/2000/svg"
   xmlns="http://www.w3.org/2000/svg"
   viewBox="0 0 42.799999 42.799999"
   height="42.799999"
   width="42.799999"
   xml:space="preserve"
   id="svg2"
   version="1.1"><metadata
     id="metadata8"><rdf:RDF><cc:Work
         rdf:about=""><dc:format>image/svg+xml</dc:format><dc:type
           rdf:resource="http://purl.org/dc/dcmitype/StillImage" /></cc:Work></rdf:RDF></metadata><defs
     id="defs6" /><g
     transform="matrix(1.3333333,0,0,-1.3333333,0,42.8)"
     id="g10"><g
       transform="scale(0.1)"
       id="g12"><path
         id="path14"
         style="fill:#ffffff;fill-opacity:1;fill-rule:nonzero;stroke:none"
         d="M 320.996,160.496 C 320.996,71.8594 249.137,0 160.496,0 71.8555,0 0,71.8594 0,160.496 c 0,88.641 71.8555,160.5 160.496,160.5 88.641,0 160.5,-71.859 160.5,-160.5" /><path
         id="path16"
         style="fill:#2e2d2d;fill-opacity:1;fill-rule:nonzero;stroke:none"
         d="m 232.547,191.211 c -30.098,6.113 -52.668,-31.383 -52.668,-31.383 1.644,5.645 7.551,13.652 11.176,23.641 6.461,17.793 -1.461,33.922 -10.094,47.117 -12.234,18.703 -20.465,50.258 -20.465,50.258 0,0 -8.226,-31.555 -20.465,-50.258 -8.629,-13.195 -16.551,-29.324 -10.09,-47.117 3.625,-9.989 9.528,-17.996 11.176,-23.641 0,0 -22.574,37.496 -52.6678,31.383 C 58.3516,185.098 49.4219,167.055 51.0625,142.902 52.9297,115.438 79.75,100.109 79.75,100.109 c 0,0 -6.5859,39.266 33.387,38.09 0,0 19.515,-1.644 22.808,-18.34 0,0 -11.992,-0.468 -13.875,-7.996 0,0 -1.41,-10.109 -1.175,-11.754 0,0 6.113,11.051 15.285,9.403 0,0 1.175,-19.2815 -6.821,-19.0432 0,0 -5.679,7.5117 -9.875,6.8789 -8.414,-1.2696 -20.691,-10.6446 -7.523,-24.75 13.168,-14.1094 36.68,10.3437 36.445,36.2113 l 4.231,-0.469 c 0,0 3.761,-8.7033 1.176,-15.0509 -2.586,-6.3477 -5.407,-18.5743 -0.235,-34.3282 5.172,-15.7539 6.918,-18.8125 6.918,-18.8125 0,0 1.746,3.0586 6.918,18.8125 5.176,15.7539 2.352,27.9805 -0.234,34.3282 -2.586,6.3476 1.175,15.0509 1.175,15.0509 l 4.235,0.469 c -0.235,-25.8676 23.277,-50.3207 36.441,-36.2113 13.168,14.1054 0.891,23.4804 -7.523,24.75 -4.195,0.6328 -9.871,-6.8789 -9.871,-6.8789 -7.996,-0.2383 -6.821,19.0432 -6.821,19.0432 9.168,1.648 15.282,-9.403 15.282,-9.403 0.234,1.645 -1.176,11.754 -1.176,11.754 -1.879,7.528 -13.871,7.996 -13.871,7.996 3.293,16.696 22.808,18.34 22.808,18.34 39.969,1.176 33.387,-38.09 33.387,-38.09 0,0 26.817,15.329 28.688,42.793 1.64,24.153 -7.289,42.196 -37.387,48.309" /></g></g></svg>