<svg
   xmlns:dc="http://purl.org/dc/elements/1.1/"
   xmlns:cc="http://creativecommons.org/ns#"
   xmlns:rdf="http://www.w3.org/1999/02/22-rdf-syntax-ns#"
   xmlns:svg="http://www.w3.org/2000/svg"
   xmlns="http://www.w3.org/2000/svg"
   viewBox="0 0 42.799999 42.799999"
   height="42.799999"
   width="42.799999"
   version="1.1"><g
     transform="matrix(1.3333333,0,0,-1.3333333,0,42.8)"
     id="g10"><g
       transform="scale(0.1)"
       id="g12"><path
         id="path14"
         style="fill:#ffffff;fill-opacity:1;fill-rule:nonzero;stroke:none"
         d="M 320.996,160.496 C 320.996,71.8555 249.137,0 160.496,0 71.8594,0 0,71.8555 0,160.496 c 0,88.641 71.8594,160.5 160.496,160.5 88.641,0 160.5,-71.859 160.5,-160.5" /><path
         id="path16"
         style="fill:#2e2d2d;fill-opacity:1;fill-rule:nonzero;stroke:none"
         d="m 181.051,177.801 c 3.015,-4.656 1.25,-9.328 0.23,-13.942 -0.683,-3.07 -1.601,-6.089 -2.511,-9.101 -1.915,-6.336 -1.481,-12.438 1.496,-18.379 2.64,-5.274 4.882,-10.723 7.187,-16.149 1.922,-4.531 0.715,-8.492 -2.359,-11.585 -6.817,-6.848 -14.063,-13.2622 -21.035,-19.9575 -2.161,-2.0742 -4.704,-2.4453 -7.164,-1.5898 -2.633,0.9179 -4.243,3.2226 -4.59,6.0937 -1.524,12.5626 -4.282,24.8716 -7.836,36.9846 -4.715,16.051 -9.867,31.957 -18.793,46.308 -2.582,4.157 -5.594,7.954 -9.703,10.762 -1.426,0.973 -2.442,1.285 -3.106,-0.844 -0.398,-1.285 -1.312,-2.398 -1.929,-3.629 -2.047,-4.093 -5.086,-6.605 -10.11,-6.121 5.692,-5.773 5.762,-6.476 1.86,-13.734 -5.5591,-10.348 -10.4692,-20.953 -12.5396,-32.641 -0.707,-4.007 -0.9336,-8.031 -0.4804,-12.117 0.1953,-1.769 0.8711,-2.644 2.5273,-2.922 5.3985,-0.902 7.3594,-8.215 4.6719,-12.496 -1.5078,-2.41 -3.6094,-3.4373 -6.3203,-3.1912 -5.0235,0.4532 -10.0235,0.7032 -15.0625,0.0469 -6.3711,-0.836 -12.2422,-2.8789 -17.5196,-6.5821 -3.875,-2.7187 -6.5468,-2.8672 -9.2343,-0.5312 -2.8633,2.4844 -3.5352,6.8554 -1.625,10.4646 0.5508,1.043 1.3242,1.852 2.375,2.356 6.5547,3.14 10.7226,8.633 14.7461,14.425 5.6406,8.122 7.9492,17.61 11.4843,26.594 3.5743,9.082 6.3438,18.453 9.4141,27.715 1.5195,4.59 3.418,5.856 8.4961,5.555 l -2.3945,2.242 c -2.3086,2.453 -2.6133,4.73 -0.9766,7.711 2.6992,4.914 4.6836,10.082 6.1172,15.5 1.543,5.832 -0.2656,9.094 -6.0352,10.453 l -2.6211,0.516 c -3.6523,0.629 -5.0507,2.976 -3.8476,6.468 1.9492,5.645 6.9062,8.543 12.8164,7.914 8.6483,-0.918 17.3473,-1.437 26.0043,-0.289 5.242,0.696 8.668,-1.824 11.695,-5.453 6.629,-7.949 11.351,-17.109 16.441,-26.035 3.567,-6.25 7.035,-12.555 10.555,-18.832 l 1.266,-2.129 c 1.843,2.61 1.793,6.231 5.05,7.621 3.204,1.367 5.946,0.235 8.348,-1.742 l 0.203,1.113 c -1.347,3.055 -0.926,5.793 1.356,8.282 3.238,3.539 5.996,7.441 8.535,11.507 2.211,3.539 1.531,7.438 -1.91,9.907 -2.629,1.89 -5.336,3.679 -7.985,5.543 -3.312,2.32 -4.25,5.41 -2.812,9.129 1.488,3.851 4.633,5.66 8.492,5.324 8.004,-0.696 15.965,-1.731 23.937,-2.676 1.801,-0.211 3.512,0.184 5.247,0.699 6.207,1.852 10.234,-0.984 10.496,-7.465 0.23,-5.675 0.441,-11.339 1.34,-16.964 0.226,-1.411 0.746,-2.618 1.382,-3.84 11.094,-21.321 20.375,-43.379 27.133,-66.469 0.613,-2.094 1.324,-4.172 1.719,-6.309 1.023,-5.507 4.164,-9.535 8.492,-12.847 3.481,-2.66 6.938,-5.34 10.262,-8.207 3.66,-3.153 3.699,-7.278 1.812,-10.6254 -1.531,-2.7187 -5.781,-3.7617 -9.617,-2.2187 -4.754,1.9179 -9.637,3.3081 -14.687,4.0271 -7.196,1.024 -14.399,0.766 -21.59,-0.183 -4.836,-0.641 -9.153,-2.4887 -13.098,-5.3207 -2.617,-1.8828 -5.387,-1.6055 -7.98,-0.0469 -2.5,1.5039 -2.778,4.2106 -2.93,6.7816 -0.16,2.734 1.133,4.769 3.473,6.234 2.629,1.641 4.785,3.883 7.113,5.902 2.141,1.856 2.176,4.364 2.058,6.93 -0.335,7.402 -3.023,14.199 -5.496,21.027 -3.906,10.805 -8.757,21.192 -14.578,31.11 -0.66,1.125 -1.277,2.265 -2.297,3.109 -0.722,0.602 -1.445,0.981 -2.371,0.262 -2.918,-2.274 -5.84,-1.813 -8.75,0.059 -0.508,0.328 -0.957,0.949 -1.937,0.488" /></g></g></svg>
