
<svg
   xmlns:dc="http://purl.org/dc/elements/1.1/"
   xmlns:cc="http://creativecommons.org/ns#"
   xmlns:rdf="http://www.w3.org/1999/02/22-rdf-syntax-ns#"
   xmlns:svg="http://www.w3.org/2000/svg"
   xmlns="http://www.w3.org/2000/svg"
   viewBox="0 0 42.799999 42.799999"
   height="42.799999"
   width="42.799999"
   xml:space="preserve"
   id="svg2"
   version="1.1"><defs
     id="defs6" /><g
     transform="matrix(1.3333333,0,0,-1.3333333,0,42.8)"
     id="g10"><g
       transform="scale(0.1)"
       id="g12"><path
         id="path14"
         style="fill:#ffffff;fill-opacity:1;fill-rule:nonzero;stroke:none"
         d="M 320.996,160.496 C 320.996,71.8594 249.137,0 160.496,0 71.8555,0 0,71.8594 0,160.496 c 0,88.641 71.8555,160.5 160.496,160.5 88.641,0 160.5,-71.859 160.5,-160.5" /><path
         id="path16"
         style="fill:#2e2d2d;fill-opacity:1;fill-rule:nonzero;stroke:none"
         d="m 212.266,72.25 h -6.84 l -2.074,1.2188 -95.985,171.7382 c -0.887,1.586 0.258,3.539 2.074,3.539 h 6.84 l 2.074,-1.219 95.989,-171.7418 c 0.883,-1.5821 -0.262,-3.5352 -2.078,-3.5352" /><path
         id="path18"
         style="fill:#2e2d2d;fill-opacity:1;fill-rule:nonzero;stroke:none"
         d="M 151.543,154.828 108.695,78.1641 c -1.48,-2.6485 0.434,-5.9141 3.469,-5.9141 h 3.18 c 1.437,0 2.765,0.7773 3.469,2.0352 l 39.832,71.2658 v 1.558 l -4.317,7.719 c -0.605,1.09 -2.176,1.09 -2.785,0" /><path
         id="path20"
         style="fill:#2e2d2d;fill-opacity:1;fill-rule:nonzero;stroke:none"
         d="m 170.164,166.168 42.852,76.664 c 1.48,2.648 -0.438,5.914 -3.469,5.914 h -3.184 c -1.437,0 -2.765,-0.781 -3.468,-2.035 l -39.832,-71.266 v -1.558 l 4.316,-7.719 c 0.609,-1.09 2.18,-1.09 2.785,0" /><path
         id="path22"
         style="fill:#2e2d2d;fill-opacity:1;fill-rule:nonzero;stroke:none"
         d="M 102.504,81.0508 63.0273,148.316 c -1.3632,2.325 0.3985,5.188 3.1954,5.188 h 2.9296 c 1.3282,0 2.5508,-0.684 3.1993,-1.785 L 109.047,89.1914 v -1.3711 l -3.977,-6.7695 c -0.558,-0.957 -2.007,-0.957 -2.566,0" /><path
         id="path24"
         style="fill:#2e2d2d;fill-opacity:1;fill-rule:nonzero;stroke:none"
         d="M 102.504,239.793 63.0273,172.527 c -1.3632,-2.324 0.3985,-5.187 3.1954,-5.187 h 2.9296 c 1.3282,0 2.5508,0.683 3.1993,1.785 l 36.6954,62.531 v 1.367 l -3.977,6.77 c -0.558,0.957 -2.007,0.957 -2.566,0" /><path
         id="path26"
         style="fill:#2e2d2d;fill-opacity:1;fill-rule:nonzero;stroke:none"
         d="m 218.125,239.793 39.477,-67.266 c 1.363,-2.324 -0.399,-5.187 -3.196,-5.187 h -2.929 c -1.329,0 -2.551,0.683 -3.196,1.785 l -36.699,62.531 v 1.367 l 3.977,6.77 c 0.558,0.957 2.007,0.957 2.566,0" /><path
         id="path28"
         style="fill:#2e2d2d;fill-opacity:1;fill-rule:nonzero;stroke:none"
         d="m 197.57,203.324 19.207,-32.726 c 0.664,-1.129 -0.195,-2.524 -1.554,-2.524 h -1.426 l -1.555,0.867 -17.855,30.422 v 0.664 l 1.933,3.297 h 1.25" /><path
         id="path30"
         style="fill:#2e2d2d;fill-opacity:1;fill-rule:nonzero;stroke:none"
         d="m 124.492,118.254 -19.207,32.726 c -0.664,1.129 0.195,2.524 1.555,2.524 h 1.426 l 1.554,-0.867 17.856,-30.426 v -0.664 l -1.934,-3.293 h -1.25" /><path
         id="path32"
         style="fill:#2e2d2d;fill-opacity:1;fill-rule:nonzero;stroke:none"
         d="m 218.703,81.0508 39.477,67.2652 c 1.367,2.325 -0.399,5.188 -3.196,5.188 h -2.929 c -1.325,0 -2.547,-0.684 -3.196,-1.785 L 212.16,89.1914 v -1.3711 l 3.977,-6.7695 c 0.562,-0.957 2.008,-0.957 2.566,0" /><path
         id="path34"
         style="fill:#2e2d2d;fill-opacity:1;fill-rule:nonzero;stroke:none"
         d="M 115.238,163.801 H 62.5781 c -1.8242,0 -3.3008,-1.477 -3.3008,-3.301 v -0.555 c 0,-1.824 1.4766,-3.3 3.3008,-3.3 h 52.6599 c 1.821,0 3.297,1.476 3.297,3.3 v 0.555 c 0,1.824 -1.476,3.301 -3.297,3.301" /><path
         id="path36"
         style="fill:#2e2d2d;fill-opacity:1;fill-rule:nonzero;stroke:none"
         d="m 258.418,163.801 h -52.66 c -1.82,0 -3.301,-1.477 -3.301,-3.301 v -0.555 c 0,-1.824 1.481,-3.3 3.301,-3.3 h 52.66 c 1.82,0 3.301,1.476 3.301,3.3 v 0.555 c 0,1.824 -1.481,3.301 -3.301,3.301" /></g></g></svg>
