
<svg
   xmlns:dc="http://purl.org/dc/elements/1.1/"
   xmlns:cc="http://creativecommons.org/ns#"
   xmlns:rdf="http://www.w3.org/1999/02/22-rdf-syntax-ns#"
   xmlns:svg="http://www.w3.org/2000/svg"
   xmlns="http://www.w3.org/2000/svg"
   viewBox="0 0 42.799999 42.799999"
   height="42.799999"
   width="42.799999"
   xml:space="preserve"
   id="svg2"
   version="1.1"><defs
     id="defs6" /><g
     transform="matrix(1.3333333,0,0,-1.3333333,0,42.8)"
     id="g10"><g
       transform="scale(0.1)"
       id="g12"><path
         id="path14"
         style="fill:#ffffff;fill-opacity:1;fill-rule:nonzero;stroke:none"
         d="M 320.996,160.496 C 320.996,71.8594 249.137,0 160.496,0 71.8555,0 0,71.8594 0,160.496 c 0,88.641 71.8555,160.5 160.496,160.5 88.641,0 160.5,-71.859 160.5,-160.5" /><path
         id="path16"
         style="fill:#2e2d2d;fill-opacity:1;fill-rule:nonzero;stroke:none"
         d="m 195.09,184.598 h -38.563 l 3.969,18.144 h 43.664 c 16.445,-11.34 -9.07,-18.144 -9.07,-18.144 z M 179.777,120.52 h -37.992 l 5.672,26.085 h 36.289 c 0,0 23.25,-9.074 -3.969,-26.085 z m 75.567,103.535 -20.563,15.547 H 98.1211 L 118.535,207.848 96.4219,114.852 62.9648,81.3945 H 189.418 l 45.93,34.0235 6.804,36.289 -20.414,15.313 25.867,14.929 7.739,42.106" /></g></g></svg>
