<?xml version="1.0" encoding="UTF-8" standalone="no"?>
<svg
   xmlns:dc="http://purl.org/dc/elements/1.1/"
   xmlns:cc="http://creativecommons.org/ns#"
   xmlns:rdf="http://www.w3.org/1999/02/22-rdf-syntax-ns#"
   xmlns:svg="http://www.w3.org/2000/svg"
   xmlns="http://www.w3.org/2000/svg"
   viewBox="0 0 42.799999 42.799999"
   height="42.799999"
   width="42.799999"
   xml:space="preserve"
   id="svg2"
   version="1.1"><metadata
     id="metadata8"><rdf:RDF><cc:Work
         rdf:about=""><dc:format>image/svg+xml</dc:format><dc:type
           rdf:resource="http://purl.org/dc/dcmitype/StillImage" /></cc:Work></rdf:RDF></metadata><defs
     id="defs6" /><g
     transform="matrix(1.3333333,0,0,-1.3333333,0,42.8)"
     id="g10"><g
       transform="scale(0.1)"
       id="g12"><path
         id="path14"
         style="fill:#ffffff;fill-opacity:1;fill-rule:nonzero;stroke:none"
         d="M 320.996,160.496 C 320.996,71.8555 249.137,0 160.496,0 71.8555,0 0,71.8555 0,160.496 c 0,88.641 71.8555,160.5 160.496,160.5 88.641,0 160.5,-71.859 160.5,-160.5" /><path
         id="path16"
         style="fill:#2e2d2d;fill-opacity:1;fill-rule:nonzero;stroke:none"
         d="m 195.355,165.734 c 0,19.11 -15.492,34.602 -34.605,34.602 -19.109,0 -34.602,-15.492 -34.602,-34.602 0,-19.113 15.493,-34.605 34.602,-34.605 19.113,0 34.605,15.492 34.605,34.605" /><path
         id="path18"
         style="fill:#2e2d2d;fill-opacity:1;fill-rule:nonzero;stroke:none"
         d="m 110.508,176.203 c 4.836,23.32 25.492,40.844 50.242,40.844 24.754,0 45.41,-17.524 50.246,-40.844 h 56.863 c -5.265,54.52 -51.207,97.145 -107.109,97.145 -55.902,0 -101.8437,-42.625 -107.1055,-97.145 h 56.8635" /><path
         id="path20"
         style="fill:#ffffff;fill-opacity:1;fill-rule:nonzero;stroke:none"
         d="m 53.1367,165.734 v 0 -0.004 z" /><path
         id="path22"
         style="fill:#2e2d2d;fill-opacity:1;fill-rule:nonzero;stroke:none"
         d="m 210.996,155.262 c -4.836,-23.321 -25.492,-40.844 -50.246,-40.844 -24.75,0 -45.406,17.523 -50.242,40.844 H 53.6445 c 5.2618,-54.52 51.2035,-97.1487 107.1055,-97.1487 55.902,0 101.844,42.6287 107.109,97.1487 h -56.863" /></g></g></svg>