
<svg
   xmlns:dc="http://purl.org/dc/elements/1.1/"
   xmlns:cc="http://creativecommons.org/ns#"
   xmlns:rdf="http://www.w3.org/1999/02/22-rdf-syntax-ns#"
   xmlns:svg="http://www.w3.org/2000/svg"
   xmlns="http://www.w3.org/2000/svg"
   viewBox="0 0 42.799999 42.799999"
   height="42.799999"
   width="42.799999"
   xml:space="preserve"
   id="svg2"
   version="1.1"><defs
     id="defs6" /><g
     transform="matrix(1.3333333,0,0,-1.3333333,0,42.8)"
     id="g10"><g
       transform="scale(0.1)"
       id="g12"><path
         id="path14"
         style="fill:#ffffff;fill-opacity:1;fill-rule:nonzero;stroke:none"
         d="M 320.996,160.496 C 320.996,71.8594 249.137,0 160.496,0 71.8594,0 0,71.8594 0,160.496 c 0,88.641 71.8594,160.5 160.496,160.5 88.641,0 160.5,-71.859 160.5,-160.5" /><path
         id="path16"
         style="fill:#2e2d2d;fill-opacity:1;fill-rule:nonzero;stroke:none"
         d="M 66.1992,245.863 H 267.637 c 0,0 -48.117,-12.925 -48.117,-47.398 0,0 2.515,23.699 -20.106,23.699 -22.621,0 -52.426,0 -52.426,0 0,0 -18.672,-0.719 -18.672,-31.957 h 67.868 c 0,0 -31.957,-24.773 -31.957,-47.758 0,0 1.074,22.266 -24.418,22.266 V 71.7148 L 129.395,49.4531 c 0,0 -16.516,51.3479 -54.5786,51.3479 l 16.875,3.949 -19.7461,2.152 20.7813,3.95 v 122.445 c 0,0 -2.8282,12.566 -26.5274,12.566" /></g></g></svg>
