<svg width="16px" height="auto" xmlns="http://www.w3.org/2000/svg" viewBox="-1646.485 2221 13.338 20">
  <defs>
    <style>
      .cls-1 {
        fill: #38aee8;
      }
    </style>
  </defs>
  <path id="Path_144" data-name="Path 144" class="cls-1" d="M13.292,5.875a6.67,6.67,0,0,0-13.244,0,6.544,6.544,0,0,0-.048.8,6.64,6.64,0,0,0,.715,3.01l.369.642L6.669,20l5.584-9.678,0,0,.366-.635h0a6.63,6.63,0,0,0,.715-3.01A5.944,5.944,0,0,0,13.292,5.875Zm-6.624,4.9a4.107,4.107,0,1,1,4.106-4.107A4.106,4.106,0,0,1,6.669,10.778Z" transform="translate(-1646.485 2221)"/>
</svg>
