<svg xmlns="http://www.w3.org/2000/svg" viewBox="-576.597 4808.355 12 12">
  <defs>
    <style>
      .cls-1 {
        fill: #878787;
      }
    </style>
  </defs>
  <path id="Path_72" data-name="Path 72" class="cls-1" d="M6,0a6,6,0,1,0,6,6A6,6,0,0,0,6,0ZM8.843,8.787a1.32,1.32,0,0,1-1.071.49,3.434,3.434,0,0,1-1.018-.221A7.394,7.394,0,0,1,3.015,5.4,2.609,2.609,0,0,1,2.77,3.91c.062-.294.136-.409.5-.776.422-.422.482-.45.743-.352.113.043.2.122.674.6.862.869.862.866.281,1.457-.5.511-.492.472-.219.844A8.035,8.035,0,0,0,6.439,7.337c.262.177.244.184.706-.271.353-.347.409-.392.5-.408.255-.043.322,0,.962.635C9.456,8.132,9.465,8.183,8.843,8.787Z" transform="translate(-576.597 4808.355)"/>
</svg>
