<svg xmlns="http://www.w3.org/2000/svg" xmlns:xlink="http://www.w3.org/1999/xlink" viewBox="-4788 3106 50 50">
  <defs>
    <style>
      .cls-1, .cls-2 {
        fill: #fff;
      }

      .cls-1 {
        stroke: #333;
      }

      .cls-3 {
        fill: #333;
      }

      .cls-4 {
        clip-path: url(#clip-path);
      }

      .cls-5 {
        clip-path: url(#clip-path-2);
      }
    </style>
    <clipPath id="clip-path">
      <rect id="Rectangle_856" data-name="Rectangle 856" class="cls-1" width="23.705" height="37.039" transform="translate(0)"/>
    </clipPath>
    <clipPath id="clip-path-2">
      <rect id="_version_:_1.5.0_viewSource_:_x_:_0_y_:_0_width_:_154_height_:_154_resources_:_clipPaths_:_filters_:_" data-name="{
	&quot;version&quot;: &quot;1.5.0&quot;,
	&quot;viewSource&quot;: {
		&quot;x&quot;: 0,
		&quot;y&quot;: 0,
		&quot;width&quot;: 154,
		&quot;height&quot;: 154
	},
	&quot;resources&quot;: {
		&quot;clipPaths&quot;: {},
		&quot;filters&quot;: {},
		" class="cls-2" width="26.772" height="26.772"/>
    </clipPath>
  </defs>
  <g id="Group_947" data-name="Group 947" transform="translate(-5557 2751)">
    <circle id="Ellipse_22" data-name="Ellipse 22" class="cls-3" cx="25" cy="25" r="25" transform="translate(769 355)"/>
    <g id="Mask_Group_26" data-name="Mask Group 26" class="cls-4" transform="translate(783.814 361.147)">
      <g id="Group_712" data-name="Group 712" transform="translate(-13.334 0)">
        <rect id="Rectangle_850" data-name="Rectangle 850" class="cls-3" width="37.039" height="37.039"/>
        <g id="Mask_Group_20" data-name="Mask Group 20" class="cls-5" transform="translate(5.134 5.134)">
          <g id="cardmarket-logo-cropped_20.03.13" data-name="cardmarket-logo-cropped 20.03.13" transform="translate(0 0.809)">
            <path id="Path_92" data-name="Path 92" class="cls-2" d="M70.18-153.784c-.413.413-.216.952.719,1.887l.952.952-3.378,3.378c-3.09,3.108-3.36,3.414-3.36,4.007,0,.773-.072.683,2.641,3.27,1.869,1.815,2.264,2.1,2.767,2.1.521,0,.952-.377,3.971-3.36l3.36-3.36.988.934c1.042.988,1.348,1.1,1.8.647.252-.234.287-.952.287-5.085,0-4.582-.018-4.815-.359-5.193-.359-.4-.467-.4-5.265-.4C71.725-154,70.342-153.946,70.18-153.784Z" transform="translate(-54.153 154)"/>
            <path id="Path_93" data-name="Path 93" class="cls-2" d="M28.027-147.511c-1.276.305-1.419.431-1.384,1.186.018.431,2.426,12.326,3.144,15.506.054.2.09-3.54.108-8.319l.018-8.66-.4.018A9.541,9.541,0,0,0,28.027-147.511Z" transform="translate(-22.367 148.877)"/>
            <path id="Path_94" data-name="Path 94" class="cls-2" d="M3.774-125.689c-1.635.611-1.707.665-1.707,1.276,0,.4,2.5,7.618,4.043,11.679.126.341.755,2.066,1.366,3.809,1.1,3.108,1.15,3.2,1.635,3.2.27,0,.5-.09.5-.2,0-.2-2.048-9.595-2.605-11.931-.144-.593-.593-2.623-1.006-4.492-.413-1.887-.791-3.5-.862-3.612C5.068-126.084,4.636-126.012,3.774-125.689Z" transform="translate(-2.067 130.881)"/>
            <path id="Path_95" data-name="Path 95" class="cls-2" d="M56.207-78.263c-.4.27-.4.287-.4,5.66,0,5.139.018,5.39.359,5.732s.593.359,5.678.359a43.314,43.314,0,0,0,5.66-.18.773.773,0,0,0,.341-.755c0-.449-.18-.755-.9-1.419a4.293,4.293,0,0,1-.9-1.042c0-.108,1.563-1.779,3.468-3.719,1.887-1.941,3.522-3.647,3.612-3.791a.821.821,0,0,0-.054-.7c-.413-.916-.827-.611-5.013,3.576-4.4,4.42-4.474,4.546-3.54,5.66a2.925,2.925,0,0,1,.449.647,34.743,34.743,0,0,1-3.773.108H57.429V-71.9c0-4.366-.09-4.222,1.653-2.354a5.17,5.17,0,0,0,1.222,1.1.894.894,0,0,0,.9-.862c0-.4-.413-.916-2.03-2.515a14.457,14.457,0,0,0-2.3-2.012A1.455,1.455,0,0,0,56.207-78.263Z" transform="translate(-46.469 91.667)"/>
          </g>
        </g>
      </g>
    </g>
  </g>
</svg>
