<svg xmlns="http://www.w3.org/2000/svg" xmlns:xlink="http://www.w3.org/1999/xlink" viewBox="-5088 3104 50 50">
  <defs>
    <style>
      .cls-1 {
        fill: #fff;
      }

      .cls-2 {
        fill: #333;
      }

      .cls-3 {
        clip-path: url(#clip-path);
      }
    </style>
    <clipPath id="clip-path">
      <rect id="_version_:_1.5.0_viewSource_:_x_:_0.09999_y_:_26.30837_width_:_75.34888_height_:_70.98083_resources_:_clipPaths_:_" data-name="{
	&quot;version&quot;: &quot;1.5.0&quot;,
	&quot;viewSource&quot;: {
		&quot;x&quot;: 0.09999,
		&quot;y&quot;: 26.30837,
		&quot;width&quot;: 75.34888,
		&quot;height&quot;: 70.98083
	},
	&quot;resources&quot;: {
		&quot;clipPaths&quot;: " class="cls-1" width="22.537" height="22.537" transform="translate(0)"/>
    </clipPath>
  </defs>
  <g id="Group_944" data-name="Group 944" transform="translate(-12 256)">
    <circle id="Ellipse_18" data-name="Ellipse 18" class="cls-2" cx="25" cy="25" r="25" transform="translate(-5076 2848)"/>
    <rect id="Rectangle_851" data-name="Rectangle 851" class="cls-2" width="33.333" height="33.333" transform="translate(-5068 2856)"/>
    <g id="Mask_Group_21" data-name="Mask Group 21" class="cls-3" transform="translate(-5062.602 2861.398)">
      <path id="EBay_logo" class="cls-1" d="M11.8,53.77C5.475,53.77.2,56.453.2,64.548.2,70.962,3.748,75,11.963,75c9.669,0,10.289-6.369,10.289-6.369H17.566s-1,3.43-5.889,3.43c-3.979,0-6.84-2.688-6.84-6.455h17.9V63.242c0-3.727-2.366-9.472-10.942-9.472Zm-.163,3.021c3.787,0,6.369,2.32,6.369,5.8H4.94C4.94,58.9,8.31,56.791,11.636,56.791Z" transform="translate(-0.204 -53.116)"/>
    </g>
  </g>
</svg>
