<svg xmlns="http://www.w3.org/2000/svg" viewBox="-575.485 4783.068 10.49 15.73">
  <defs>
    <style>
      .cls-1 {
        fill: #878787;
      }
    </style>
  </defs>
  <path id="Path_71" data-name="Path 71" class="cls-1" d="M10.454,4.621a5.246,5.246,0,0,0-10.417,0A5.147,5.147,0,0,0,0,5.247,5.222,5.222,0,0,0,.563,7.614l.29.5L5.245,15.73,9.637,8.119l0,0,.288-.5h0a5.214,5.214,0,0,0,.563-2.367A4.675,4.675,0,0,0,10.454,4.621ZM5.245,8.477a3.23,3.23,0,1,1,3.229-3.23A3.229,3.229,0,0,1,5.245,8.477Z" transform="translate(-575.485 4783.068)"/>
</svg>
