<?xml version="1.0" encoding="utf-8"?>
<!-- Generator: Adobe Illustrator 21.1.0, SVG Export Plug-In . SVG Version: 6.00 Build 0)  -->
<svg version="1.1" id="Layer_1" xmlns="http://www.w3.org/2000/svg" xmlns:xlink="http://www.w3.org/1999/xlink" x="0px" y="0px"
	 viewBox="0 0 586.1 586.1" style="enable-background:new 0 0 586.1 586.1;" xml:space="preserve">
<style type="text/css">
	.st0{fill:#333333;}
	.st1{fill:#FFFFFF;}
</style>
<path id="XMLID_153_" class="st0" d="M293.1,0C131.5,0,0,131.5,0,293.1s131.5,293,293.1,293s293.1-131.5,293.1-293S454.6,0,293.1,0z
	"/>
<polygon id="XMLID_152_" class="st1" points="294.6,55.7 288,59.2 289.3,51.8 284,46.6 291.3,45.5 294.6,38.8 297.9,45.5 
	305.3,46.6 300,51.8 301.2,59.2 "/>
<polygon id="XMLID_151_" class="st1" points="198,76 193.4,81.8 191.6,74.6 184.6,72 190.9,68 191.2,60.6 196.9,65.3 204.1,63.3 
	201.3,70.2 205.5,76.4 "/>
<polygon id="XMLID_150_" class="st1" points="118,133.8 116.2,141 111.6,135.1 104.1,135.6 108.3,129.4 105.5,122.5 112.7,124.5 
	118.4,119.7 118.7,127.2 125,131.2 "/>
<polygon id="XMLID_149_" class="st1" points="68.5,219.1 69.7,226.5 63.1,223 56.5,226.5 57.8,219.1 52.4,213.9 59.8,212.8 
	63.1,206.1 66.4,212.8 73.8,213.9 "/>
<polygon id="XMLID_148_" class="st1" points="57.9,317.2 62,323.4 54.6,323 50,328.8 48.1,321.6 41.1,319 47.4,315 47.7,307.6 
	53.5,312.3 60.7,310.3 "/>
<polygon id="XMLID_147_" class="st1" points="88.1,411.2 94.5,415.2 87.4,417.8 85.6,425 81,419.1 73.5,419.6 77.7,413.4 
	74.9,406.5 82.1,408.5 87.8,403.7 "/>
<polygon id="XMLID_146_" class="st1" points="154,484.7 161.4,485.8 156,491 157.3,498.3 150.7,494.9 144.1,498.3 145.3,491 
	140,485.8 147.4,484.7 150.7,478 "/>
<polygon id="XMLID_145_" class="st1" points="244,525.1 251.2,523.1 248.5,530 252.6,536.2 245.2,535.7 240.5,541.6 238.7,534.4 
	231.7,531.8 238,527.8 238.3,520.3 "/>
<polygon id="XMLID_144_" class="st1" points="342.7,525.4 348.5,520.6 348.8,528 355.1,532 348.1,534.6 346.3,541.8 341.6,536 
	334.2,536.5 338.3,530.3 335.6,523.3 "/>
<polygon id="XMLID_143_" class="st1" points="433,485.4 436.3,478.8 439.6,485.4 447,486.5 441.7,491.7 442.9,499.1 436.3,495.6 
	429.7,499.1 431,491.7 425.6,486.5 "/>
<polygon id="XMLID_142_" class="st1" points="499.3,412.3 499.6,404.8 505.3,409.6 512.5,407.6 509.7,414.5 513.9,420.7 
	506.4,420.2 501.8,426.1 499.9,418.8 492.9,416.3 "/>
<polygon id="XMLID_141_" class="st1" points="530,318.5 527.2,311.6 534.4,313.6 540.2,308.8 540.5,316.3 546.8,320.2 539.8,322.8 
	537.9,330.1 533.3,324.2 525.9,324.7 "/>
<polygon id="XMLID_140_" class="st1" points="519.9,220.3 514.6,215.1 522,214 525.3,207.3 528.6,214 536,215.1 530.6,220.3 
	531.9,227.7 525.3,224.2 518.7,227.7 "/>
<polygon id="XMLID_139_" class="st1" points="470.8,134.7 463.8,132.1 470.1,128.1 470.4,120.7 476.2,125.4 483.4,123.4 
	480.6,130.3 484.7,136.6 477.3,136.1 472.7,141.9 "/>
<polygon id="XMLID_138_" class="st1" points="391.1,76.5 383.7,77 387.8,70.7 385.1,63.8 392.2,65.8 398,61.1 398.3,68.5 
	404.6,72.5 397.6,75.1 395.8,82.3 "/>
<g id="XMLID_134_">
	<path id="XMLID_137_" class="st1" d="M81.9,468c-39.4-47.5-63.2-108.5-63.2-174.9c0-31.2,5.2-61.1,14.8-89.1l-1.1-6.2
		c-10.9,29.7-16.8,61.8-16.8,95.2c0,69.1,25.4,132.5,67.4,181.1L81.9,468z"/>
	<path id="XMLID_136_" class="st1" d="M58.4,151C106.5,71.8,193.7,18.7,293.1,18.7c92.6,0,174.7,46.2,224.4,116.7l4.7,1.4
		c-50-73.1-134-121.1-229.1-121.1c-101.4,0-190.3,54.7-238.7,136.2L58.4,151z"/>
	<path id="XMLID_135_" class="st1" d="M550.5,189.6l-1.4,4.9c11.8,30.6,18.3,63.8,18.3,98.5c0,151.3-123.1,274.3-274.3,274.3
		c-54.3,0-104.9-15.8-147.5-43.1l-4.4,0.8c43.7,28.7,95.9,45.4,152,45.4c153,0,277.5-124.5,277.5-277.5
		C570.5,256.5,563.4,221.6,550.5,189.6z"/>
</g>
<g id="XMLID_131_">
	<path id="XMLID_133_" class="st1" d="M164.6,131.6c34.1-27.2,77-43.9,123.7-44.9c1.2-1.1,2.5-2.2,3.8-3.2
		c-50.9,0.2-97.6,18.7-133.9,49.2L164.6,131.6z"/>
	<path id="XMLID_132_" class="st1" d="M359.8,488.4c-20.9,7.2-43.4,11.1-66.7,11.1c-3.6,0-7.1-0.1-10.7-0.3l-11.9,2.2
		c7.4,0.8,14.9,1.2,22.5,1.2c25.2,0,49.4-4.5,71.9-12.7L359.8,488.4z"/>
</g>
<g id="XMLID_107_">
	<path id="XMLID_115_" class="st0" d="M518.2,147.3L326.5,92.4c-16.6-4.8-34.2,5-38.9,21.6l-81.9,285.9c-4.8,16.6,5,34.2,21.6,38.9
		l191.8,54.9c16.6,4.8,34.2-5,38.9-21.6l81.9-285.9C544.6,169.5,534.9,152,518.2,147.3z"/>
	<path id="XMLID_114_" class="st1" d="M523.7,159.7L315.3,100c-6.5-1.9-13.4,1.9-15.2,8.4l-86.6,302.6c-1.9,6.5,1.9,13.4,8.4,15.2
		L430.3,486c6.5,1.9,13.4-1.9,15.2-8.4l86.6-302.6C534,168.4,530.2,161.6,523.7,159.7z"/>
	<path id="XMLID_111_" class="st0" d="M231.2,423.7c-3.1-1.3-5.7-3.6-7.4-6.6c-1.9-3.5-2.4-7.5-1.3-11.4l82.4-287.8
		c1.1-3.8,3.6-7,7.1-8.9c3.5-1.9,7.5-2.4,11.4-1.3l189.5,54.2c7.9,2.3,12.5,10.6,10.3,18.5l-82.4,287.8
		c-2.3,7.9-10.6,12.5-18.5,10.3l-189.5-54.2C232.2,424,231.7,423.9,231.2,423.7z M511.5,166.6L322,112.4c-2.6-0.7-5.3-0.4-7.6,0.9
		c-2.4,1.3-4.1,3.4-4.8,6l-82.4,287.8c-0.7,2.6-0.4,5.3,0.9,7.6c1.3,2.4,3.4,4,6,4.8l189.5,54.2c5.3,1.5,10.9-1.6,12.4-6.9
		L518.4,179C519.9,173.7,516.7,168.1,511.5,166.6L511.5,166.6z"/>
	<path id="XMLID_108_" class="st0" d="M430.8,276l9.4-32.8c0-0.1,0-0.1-0.1-0.1l-17.3-5c-0.1,0-0.1,0-0.1,0.1l-4.3,15.2
		c0,0.1-0.1,0.1-0.1,0.1l-20.8-5.9c-0.1,0-0.1-0.1-0.1-0.1l4.3-15.2c0-0.1,0-0.1-0.1-0.1l-10.5-3l-10.5-3c-0.1,0-0.1,0-0.1,0.1
		l-4.3,15.2c0,0.1-0.1,0.1-0.1,0.1l-20.8-5.9c-0.1,0-0.1-0.1-0.1-0.1l4.3-15.2c0-0.1,0-0.1-0.1-0.1l-17.3-5c-0.1,0-0.1,0-0.1,0.1
		l-9.4,32.8c0,0,0,0.1,0,0.1l9.5,8.5c0,0,0,0.1,0,0.1l-18.8,65.7c0,0.1-0.1,0.1-0.1,0.1l-10.9-3.1c-0.1,0-0.1,0-0.1,0.1l-6.7,23.6
		c0,0.1,0,0.1,0.1,0.1l49,14l49,14c0.1,0,0.1,0,0.1-0.1l6.7-23.6c0-0.1,0-0.1-0.1-0.1l-10.9-3.1c-0.1,0-0.1-0.1-0.1-0.1l18.8-65.7
		c0,0,0-0.1,0.1-0.1L430.8,276C430.8,276.1,430.8,276,430.8,276z M379.9,289.4l-11.2-3.2c-0.1,0-0.1-0.1-0.1-0.1l5.5-19.3
		c0.9-3,4.1-5.2,7.2-4.5c3.3,0.8,5.3,4.2,4.3,7.4l-5.6,19.7C380,289.4,379.9,289.4,379.9,289.4z"/>
</g>
<g id="XMLID_98_">
	<path id="XMLID_106_" class="st0" d="M277.2,122.4L57,162.7c-10.4,1.9-17.4,12-15.5,22.4l58,316.6c1.9,10.4,12,17.4,22.4,15.5
		l220.2-40.3c10.4-1.9,17.4-12,15.5-22.4l-58-316.6C297.7,127.4,287.6,120.5,277.2,122.4z"/>
	<path id="XMLID_105_" class="st1" d="M275.9,133.3L62,172.4c-6.5,1.2-10.8,7.5-9.6,14l56.8,310.3c1.2,6.5,7.5,10.8,14,9.6
		L337,467.1c6.5-1.2,10.8-7.5,9.6-14l-56.8-310.3C288.7,136.4,282.4,132.1,275.9,133.3z"/>
	<path id="XMLID_102_" class="st0" d="M130.6,499.7c-3.4,0.2-6.7-0.7-9.6-2.6c-3.3-2.3-5.5-5.7-6.2-9.6L60.9,193
		c-0.7-3.9,0.1-7.9,2.4-11.2c2.3-3.3,5.7-5.5,9.6-6.2l193.9-35.5c8.1-1.5,15.9,3.9,17.4,12l53.9,294.5c1.5,8.1-3.9,15.9-12,17.4
		l-193.9,35.5C131.7,499.6,131.2,499.6,130.6,499.7z M267.7,144.9L73.8,180.4c-2.6,0.5-4.9,2-6.4,4.2c-1.5,2.2-2.1,4.9-1.6,7.5
		l53.9,294.5c0.5,2.6,2,4.9,4.2,6.4c2.2,1.5,4.9,2.1,7.5,1.6l193.9-35.5c5.4-1,9.1-6.2,8.1-11.7L279.4,153
		C278.4,147.5,273,143.9,267.7,144.9L267.7,144.9z"/>
	<path id="XMLID_99_" class="st0" d="M244,278.7l-6.1-33.5c0-0.1-0.1-0.1-0.1-0.1l-17.7,3.2c-0.1,0-0.1,0.1-0.1,0.1l2.8,15.5
		c0,0.1,0,0.1-0.1,0.1l-21.2,3.9c-0.1,0-0.1,0-0.1-0.1l-2.8-15.5c0-0.1-0.1-0.1-0.1-0.1l-10.7,2l-10.7,2c-0.1,0-0.1,0.1-0.1,0.1
		l2.8,15.5c0,0.1,0,0.1-0.1,0.1l-21.2,3.9c-0.1,0-0.1,0-0.1-0.1l-2.8-15.5c0-0.1-0.1-0.1-0.1-0.1l-17.7,3.2c-0.1,0-0.1,0.1-0.1,0.1
		l6.1,33.5c0,0,0,0.1,0.1,0.1l12.3,3.4c0,0,0.1,0,0.1,0.1l12.3,67.2c0,0.1,0,0.1-0.1,0.1l-11.2,2c-0.1,0-0.1,0.1-0.1,0.1l4.4,24.1
		c0,0.1,0.1,0.1,0.1,0.1l50.2-9.2l50.2-9.2c0.1,0,0.1-0.1,0.1-0.1l-4.4-24.1c0-0.1-0.1-0.1-0.1-0.1l-11.2,2c-0.1,0-0.1,0-0.1-0.1
		l-12.3-67.2c0,0,0-0.1,0-0.1l10.3-7.5C244,278.8,244,278.8,244,278.7z M204.3,313.3l-11.5,2.1c-0.1,0-0.1,0-0.1-0.1l-3.6-19.7
		c-0.6-3.1,1.4-6.5,4.4-7.2c3.3-0.8,6.6,1.4,7.2,4.7l3.7,20.1C204.4,313.3,204.3,313.3,204.3,313.3z"/>
</g>
</svg>
